<svg width="68" height="68" viewBox="0 0 68 68" fill="none" xmlns="http://www.w3.org/2000/svg">
<path d="M34.2455 34C32.7546 22.6667 37.3529 0 67.6731 0C69.3994 11.3333 65.1308 34 34.2455 34Z" fill="#B1D785"/>
<path d="M0.24551 0C-1.24539 11.3333 3.35287 34 33.6731 34C35.3994 22.6667 31.1308 0 0.24551 0Z" fill="#8B9E70"/>
<path d="M58.8902 41.78C62.1327 40.2635 62.6327 31.7134 58.8902 30H34V41.78V68H49.8816C52.5023 62.224 56.9793 48.1133 58.8902 41.78Z" fill="#D36945"/>
<path d="M9.57389 41.78C6.39175 40.2635 5.90108 31.7134 9.57389 30H34V41.78V68H18.4144C15.8426 62.224 11.4492 48.1133 9.57389 41.78Z" fill="#D36945"/>
</svg>
