<svg width="68" height="68" viewBox="0 0 68 68" fill="none" xmlns="http://www.w3.org/2000/svg">
<path d="M36.8326 5.66643C30.1329 5.02302 23.4229 6.78567 17.9043 10.6387C12.3857 14.4917 8.41891 20.1835 6.71442 26.6947C5.00992 33.2059 5.67899 40.1112 8.60181 46.174C11.5246 52.2369 16.5103 57.0612 22.666 59.7831C26.2309 61.3952 30.0874 62.2629 33.9993 62.3331C40.2269 62.3336 46.2812 60.2823 51.226 56.4964C51.8227 56.0414 52.2146 55.3681 52.3155 54.6244C52.4164 53.8808 52.2182 53.1274 51.7643 52.5298C51.5387 52.2302 51.256 51.9784 50.9324 51.789C50.6088 51.5995 50.2508 51.4762 49.8792 51.4261C49.5076 51.376 49.1298 51.4002 48.7676 51.4973C48.4054 51.5943 48.0661 51.7623 47.7693 51.9914C44.8308 54.2111 41.3957 55.6813 37.7612 56.2749C34.1267 56.8686 30.4024 56.5677 26.9103 55.3984C23.4182 54.2291 20.2637 52.2266 17.7195 49.5641C15.1753 46.9016 13.3182 43.6593 12.3088 40.1177C11.2994 36.5761 11.1681 32.8419 11.9263 29.2382C12.6844 25.6344 14.3092 22.2697 16.6601 19.435C19.011 16.6004 22.0171 14.3813 25.4184 12.9696C28.8197 11.5579 32.5138 10.9962 36.181 11.3331C41.8723 11.9918 47.1172 14.7377 50.9011 19.0398C54.685 23.3418 56.739 28.8942 56.666 34.6231V36.5498C56.6627 37.2007 56.5283 37.8442 56.2708 38.4421C56.0133 39.0399 55.638 39.5797 55.1673 40.0293C54.6966 40.4788 54.1401 40.8289 53.5311 41.0587C52.9221 41.2884 52.273 41.3931 51.6226 41.3664C50.3256 41.224 49.1307 40.5952 48.279 39.6067C47.4272 38.6182 46.9818 37.3436 47.0326 36.0398V23.7998C47.0326 23.0483 46.7341 22.3276 46.2028 21.7963C45.6714 21.2649 44.9507 20.9664 44.1993 20.9664C43.5075 20.9606 42.8375 21.208 42.3156 21.6621C41.7936 22.1161 41.4559 22.7455 41.366 23.4314C38.7291 20.9482 35.2413 19.5693 31.6193 19.5781C29.1576 19.5965 26.7417 20.2448 24.6015 21.4612C22.4612 22.6776 20.668 24.4216 19.3925 26.5271C18.117 28.6326 17.4017 31.0296 17.3148 33.4898C17.2278 35.95 17.772 38.3915 18.8956 40.5818C20.0192 42.7722 21.6848 44.6384 23.7337 46.0029C25.7827 47.3674 28.1468 48.1847 30.6011 48.377C33.0553 48.5692 35.5178 48.1301 37.7543 47.1013C39.9908 46.0725 41.9266 44.4884 43.3776 42.4998C44.2 43.772 45.2955 44.8451 46.5845 45.641C47.8734 46.437 49.3235 46.9359 50.8293 47.1014C52.3352 47.2669 53.859 47.0949 55.2901 46.5979C56.7211 46.1009 58.0235 45.2913 59.1026 44.2281C60.1412 43.24 60.9643 42.0479 61.5201 40.7265C62.076 39.4051 62.3526 37.9831 62.3326 36.5498V34.6231C62.396 27.5029 59.8285 20.6099 55.1227 15.2661C50.4168 9.92226 43.9037 6.50385 36.8326 5.66643ZM31.676 42.7548C29.9444 42.7548 28.2517 42.2413 26.8119 41.2793C25.3722 40.3173 24.25 38.9499 23.5874 37.3502C22.9248 35.7504 22.7514 33.99 23.0892 32.2917C23.427 30.5934 24.2608 29.0334 25.4852 27.809C26.7097 26.5846 28.2696 25.7508 29.968 25.413C31.6663 25.0752 33.4266 25.2485 35.0264 25.9112C36.6261 26.5738 37.9935 27.696 38.9555 29.1357C39.9175 30.5755 40.431 32.2682 40.431 33.9998C40.4235 36.3194 39.4987 38.542 37.8584 40.1822C36.2182 41.8225 33.9956 42.7473 31.676 42.7548Z" fill="#C7925D"/>
</svg>
