<svg width="68" height="68" viewBox="0 0 68 68" fill="none" xmlns="http://www.w3.org/2000/svg">
<path d="M36.8333 22.6667C39.0877 22.6667 41.2497 23.5622 42.8437 25.1563C44.4378 26.7503 45.3333 28.9123 45.3333 31.1667C45.3333 31.9181 45.6318 32.6388 46.1632 33.1701C46.6945 33.7015 47.4152 34 48.1667 34C48.9181 34 49.6388 33.7015 50.1701 33.1701C50.7015 32.6388 51 31.9181 51 31.1667C51 27.4094 49.5074 23.8061 46.8507 21.1493C44.1939 18.4926 40.5906 17 36.8333 17C36.0819 17 35.3612 17.2985 34.8299 17.8299C34.2985 18.3612 34 19.0819 34 19.8333C34 20.5848 34.2985 21.3054 34.8299 21.8368C35.3612 22.3682 36.0819 22.6667 36.8333 22.6667Z" fill="#C7925D"/>
<path d="M36.8333 11.3334C42.0935 11.3334 47.1381 13.423 50.8576 17.1425C54.5771 20.8619 56.6667 25.9066 56.6667 31.1667C56.6667 31.9182 56.9652 32.6389 57.4965 33.1702C58.0279 33.7016 58.7486 34.0001 59.5 34.0001C60.2514 34.0001 60.9721 33.7016 61.5035 33.1702C62.0348 32.6389 62.3333 31.9182 62.3333 31.1667C62.3333 24.4037 59.6467 17.9177 54.8646 13.1355C50.0824 8.35335 43.5964 5.66675 36.8333 5.66675C36.0819 5.66675 35.3612 5.96526 34.8299 6.49661C34.2985 7.02796 34 7.74863 34 8.50008C34 9.25153 34.2985 9.9722 34.8299 10.5036C35.3612 11.0349 36.0819 11.3334 36.8333 11.3334Z" fill="#C7925D"/>
<path d="M61.6251 45.0784C61.4692 44.6236 61.2002 44.2159 60.8433 43.8937C60.4865 43.5715 60.0534 43.3454 59.5851 43.2367L42.5851 39.3551C42.1236 39.2505 41.6433 39.2631 41.188 39.3917C40.7327 39.5204 40.3168 39.7611 39.9784 40.0917C39.5817 40.4601 39.5534 40.4884 37.7118 44.0017C31.6008 41.1859 26.7042 36.2692 23.9134 30.1467C27.5117 28.3334 27.5401 28.3334 27.9084 27.9084C28.2391 27.57 28.4798 27.1541 28.6084 26.6988C28.7371 26.2435 28.7497 25.7632 28.6451 25.3017L24.7634 8.50008C24.6547 8.03172 24.4287 7.59872 24.1065 7.24183C23.7843 6.88495 23.3766 6.61592 22.9217 6.46008C22.2601 6.22375 21.5768 6.05293 20.8817 5.95008C20.1656 5.78403 19.4349 5.68913 18.7001 5.66675C15.2434 5.66675 11.9283 7.0399 9.48412 9.48412C7.0399 11.9283 5.66675 15.2434 5.66675 18.7001C5.68174 30.2678 10.2836 41.3574 18.4632 49.5369C26.6428 57.7165 37.7324 62.3184 49.3001 62.3334C51.0116 62.3334 52.7064 61.9963 54.2877 61.3413C55.869 60.6863 57.3058 59.7263 58.516 58.516C59.7263 57.3058 60.6863 55.869 61.3413 54.2877C61.9963 52.7064 62.3334 51.0116 62.3334 49.3001C62.3343 48.5789 62.2774 47.8588 62.1634 47.1467C62.0443 46.443 61.8642 45.7509 61.6251 45.0784Z" fill="#C7925D"/>
</svg>
