<svg width="68" height="68" viewBox="0 0 68 68" fill="none" xmlns="http://www.w3.org/2000/svg">
<path d="M22.8933 56.667C27.083 56.8072 31.2582 56.1061 35.1723 54.6052C39.0863 53.1043 42.6598 50.834 45.6815 47.9285C48.7033 45.023 51.1119 41.5412 52.7651 37.689C54.4183 33.8368 55.2825 29.6922 55.3067 25.5003C57.2267 23.1243 58.6524 20.3885 59.5 17.4537C59.5633 17.2218 59.5582 16.9766 59.4853 16.7475C59.4124 16.5185 59.2749 16.3154 59.0893 16.1627C58.9036 16.01 58.6778 15.9142 58.439 15.8869C58.2003 15.8596 57.9586 15.9019 57.7433 16.0087C56.7389 16.4922 55.608 16.6484 54.5101 16.4552C53.4121 16.2621 52.4025 15.7293 51.6233 14.932C50.6287 13.8428 49.4255 12.9643 48.0852 12.3486C46.7448 11.7329 45.2945 11.3926 43.8202 11.3476C42.3459 11.3027 40.8775 11.5542 39.5022 12.0871C38.1268 12.6201 36.8724 13.4237 35.8133 14.4503C34.3632 15.8547 33.3011 17.6103 32.7301 19.5466C32.1592 21.4828 32.0988 23.5339 32.555 25.5003C23.0633 26.067 16.5467 21.562 11.3333 15.3853C11.1767 15.208 10.9718 15.08 10.7437 15.0172C10.5156 14.9543 10.2741 14.9593 10.0488 15.0314C9.82341 15.1035 9.62393 15.2397 9.47468 15.4233C9.32543 15.6069 9.23288 15.83 9.20833 16.0653C8.21516 21.5745 8.93159 27.2557 11.2614 32.3459C13.5912 37.436 17.4229 41.6913 22.2417 44.5403C19.0106 48.2458 14.4733 50.5602 9.57666 51.0003C9.31433 51.0438 9.07216 51.1683 8.88406 51.3562C8.69595 51.5442 8.57132 51.7862 8.5276 52.0485C8.48389 52.3108 8.52327 52.5802 8.64026 52.819C8.75724 53.0578 8.94595 53.2541 9.18 53.3803C13.44 55.5092 18.1311 56.6335 22.8933 56.667Z" fill="#C7925D"/>
</svg>
